<svg
  class="hero-diagram"
  viewBox="0 0 640 420"
  fill="none"
  xmlns="http://www.w3.org/2000/svg"
  aria-hidden="true"
>
  <!-- outer frame -->
  <rect x="40" y="40" width="560" height="340" rx="24" class="diagram-stroke diagram-frame" />

  <!-- top card -->
  <rect x="88" y="84" width="180" height="96" rx="18" class="diagram-stroke diagram-soft-fill" />
  <rect x="108" y="106" width="96" height="14" rx="7" class="diagram-stroke" />
  <rect x="108" y="132" width="132" height="10" rx="5" class="diagram-stroke" />
  <rect x="108" y="150" width="110" height="10" rx="5" class="diagram-stroke" />

  <!-- focus ring -->
  <rect x="80" y="76" width="196" height="112" rx="22" class="diagram-focus" />

  <!-- middle panel -->
  <rect x="318" y="102" width="220" height="132" rx="20" class="diagram-stroke diagram-soft-fill" />
  <rect x="344" y="128" width="120" height="12" rx="6" class="diagram-stroke" />
  <rect x="344" y="154" width="156" height="10" rx="5" class="diagram-stroke" />
  <rect x="344" y="176" width="132" height="10" rx="5" class="diagram-stroke" />
  <rect x="344" y="198" width="96" height="10" rx="5" class="diagram-stroke" />

  <!-- lower controls -->
  <rect x="112" y="242" width="148" height="78" rx="18" class="diagram-stroke diagram-soft-fill" />
  <rect x="136" y="264" width="72" height="12" rx="6" class="diagram-stroke" />
  <rect x="136" y="288" width="96" height="10" rx="5" class="diagram-stroke" />

  <rect x="306" y="266" width="112" height="42" rx="21" class="diagram-stroke diagram-soft-fill" />
  <rect x="446" y="258" width="112" height="58" rx="16" class="diagram-stroke diagram-soft-fill" />
  <rect x="466" y="280" width="72" height="12" rx="6" class="diagram-stroke" />

  <!-- connectors -->
  <path d="M268 132H304" class="diagram-line" />
  <path d="M260 282H290" class="diagram-line" />
  <path d="M418 286H446" class="diagram-line" />
  <path d="M428 234V252" class="diagram-line" />

  <!-- directional hints -->
  <path d="M286 132l10-8v16l-10-8Z" class="diagram-arrow-fill" />
  <path d="M432 252l-8 10h16l-8-10Z" class="diagram-arrow-fill" />

  <!-- tab order markers -->
  <circle cx="96" cy="60" r="14" class="diagram-stroke diagram-soft-fill" />
  <circle cx="306" cy="82" r="14" class="diagram-stroke diagram-soft-fill" />
  <circle cx="284" cy="334" r="14" class="diagram-stroke diagram-soft-fill" />
  <circle cx="572" cy="248" r="14" class="diagram-stroke diagram-soft-fill" />

  <text x="96" y="65" text-anchor="middle" class="diagram-number">1</text>
  <text x="306" y="87" text-anchor="middle" class="diagram-number">2</text>
  <text x="284" y="339" text-anchor="middle" class="diagram-number">3</text>
  <text x="572" y="253" text-anchor="middle" class="diagram-number">4</text>
</svg>