<svg xmlns="http://www.w3.org/2000/svg" aria-hidden="true" style="display:none">

  <!-- Chevrons -->
  <symbol id="icon-chevron-up" viewBox="0 0 24 24">
    <path d="m7.4 15.4 4.6-4.58 4.6 4.58L18 14l-6-6-6 6 1.4 1.4z" fill="currentColor"/>
  </symbol>

  <symbol id="icon-chevron-down" viewBox="0 0 24 24">
    <path d="m7.4 8.6 4.6 4.58 4.6-4.58L18 10l-6 6-6-6 1.4-1.4z" fill="currentColor"/>
  </symbol>

  <symbol id="icon-chevron-right" viewBox="0 0 24 24">
    <path d="M10 6 8.6 7.4l4.58 4.6-4.58 4.6L10 18l6-6-6-6z" fill="currentColor"/>
  </symbol>

  <symbol id="icon-chevron-left" viewBox="0 0 24 24">
    <path d="M15.4 7.4 14 6l-6 6 6 6 1.4-1.4-4.58-4.6 4.58-4.6z" fill="currentColor"/>
  </symbol>

  <!-- UI -->
  <symbol id="icon-opens-new-window" viewBox="0 0 24 24">
    <path d="M19 19H5V5h7V3H5a2 2 0 0 0-2 2v14a2 2 0 0 0 2 2h14c1.1 0 2-.9 2-2v-7h-2v7zM14 3v2h3.6l-9.83 9.83 1.4 1.4L19 6.4V10h2V3h-7z" fill="currentColor"/>
  </symbol>

  <symbol id="icon-close" viewBox="0 0 24 24">
    <path d="M19 6.4 17.6 5 12 10.6 6.4 5 5 6.4l5.6 5.6L5 17.6 6.4 19l5.6-5.6 5.6 5.6 1.4-1.4-5.6-5.6L19 6.4z" fill="currentColor"/>
  </symbol>

  <!-- Alerts -->
  <symbol id="icon-alert-warning" viewBox="0 0 24 24">
    <path d="M1 21h22L12 2 1 21zm12-3h-2v-2h2v2zm0-4h-2v-4h2v4z" fill="#ffd440"/>
    <path d="M11 10h2v4h-2zm0 6h2v2h-2z" fill="#000"/>
  </symbol>

  <symbol id="icon-alert-success" viewBox="0 0 24 24">
    <path d="M12 2C6.48 2 2 6.48 2 12s4.48 10 10 10 10-4.48 10-10S17.52 2 12 2zm-2 15-5-5 1.4-1.4 3.6 3.58L17.17 7l1.4 1.42L10 17z" fill="#118847"/>
    <path d="m5 12 5 5 8.58-8.58L17.17 7 10 14.17 6.4 10.6 5 12z" fill="#fff"/>
  </symbol>

  <symbol id="icon-alert-information" viewBox="0 0 24 24">
    <path d="M12 2C6.48 2 2 6.48 2 12s4.48 10 10 10 10-4.48 10-10S17.52 2 12 2zm1 15h-2v-6h2v6zm0-8h-2V7h2v2z" fill="#1080a6"/>
    <path d="M11 17h2v-6h-2v6zm0-8h2V7h-2v2z" fill="#fff"/>
  </symbol>

  <symbol id="icon-alert-error" viewBox="0 0 24 24">
    <path d="M12 2C6.48 2 2 6.48 2 12s4.48 10 10 10 10-4.48 10-10S17.52 2 12 2zm1 15h-2v-2h2v2zm0-4h-2V7h2v6z" fill="#cd0000"/>
    <path d="M11 17h2v-2h-2v2zm0-4h2V7h-2v6z" fill="#fff"/>
  </symbol>

</svg>
