<svg width="250" height="250" viewBox="0 0 250 250" fill="none" xmlns="http://www.w3.org/2000/svg">
<rect x="0.5" y="0.5" width="249" height="249" fill="#F3F3F3"/>
<rect x="0.5" y="0.5" width="249" height="249" stroke="#BFBEC4"/>
<g clip-path="url(#clip0_43_194)">
<rect x="26" y="39" width="198" height="38" fill="#EFEFEF" stroke="#222222" stroke-width="2"/>
<rect x="26" y="77" width="198" height="58" fill="#FEFEFE" stroke="#222222" stroke-width="2"/>
<rect x="26" y="135" width="198" height="38" fill="#FEFEFE" stroke="#222222" stroke-width="2"/>
<rect x="26" y="173" width="198" height="38" fill="#FEFEFE" stroke="#222222" stroke-width="2"/>
<path d="M42 97C42 94.2386 44.2386 92 47 92H201C203.761 92 206 94.2386 206 97C206 99.7614 203.761 102 201 102H47C44.2386 102 42 99.7614 42 97Z" fill="#BABABA"/>
<path d="M42 115C42 112.239 44.2386 110 47 110H163C165.761 110 168 112.239 168 115C168 117.761 165.761 120 163 120H47C44.2386 120 42 117.761 42 115Z" fill="#BABABA"/>
<path d="M196 60L201 54.75L206 60" stroke="#222222" stroke-width="2" stroke-linecap="round" stroke-linejoin="round"/>
<path d="M206 151L201 156.25L196 151" stroke="#222222" stroke-width="2" stroke-linecap="round" stroke-linejoin="round"/>
<path d="M206 189L201 194.25L196 189" stroke="#222222" stroke-width="2" stroke-linecap="round" stroke-linejoin="round"/>
</g>
<defs>
<clipPath id="clip0_43_194">
<rect width="200" height="182" fill="white" transform="translate(25 34)"/>
</clipPath>
</defs>
</svg>
