<svg width="250" height="250" viewBox="0 0 250 250" fill="none" xmlns="http://www.w3.org/2000/svg">
<rect x="0.5" y="0.5" width="249" height="249" fill="#F3F3F3"/>
<rect x="0.5" y="0.5" width="249" height="249" stroke="#BFBEC4"/>
<path d="M20 127C20 124.239 22.2386 122 25 122H65C67.7614 122 70 124.239 70 127C70 129.761 67.7614 132 65 132H25C22.2386 132 20 129.761 20 127Z" fill="#8D8D8D"/>
<path d="M100 127C100 124.239 102.239 122 105 122H145C147.761 122 150 124.239 150 127C150 129.761 147.761 132 145 132H105C102.239 132 100 129.761 100 127Z" fill="#8D8D8D"/>
<path d="M180 127C180 124.239 182.239 122 185 122H225C227.761 122 230 124.239 230 127C230 129.761 227.761 132 225 132H185C182.239 132 180 129.761 180 127Z" fill="#8D8D8D"/>
<path d="M88.5256 121.864L85.7131 132.312H84.1491L86.9616 121.864H88.5256Z" fill="#222222"/>
<path d="M167.526 121.864L164.713 132.312H163.149L165.962 121.864H167.526Z" fill="#222222"/>
</svg>
