<svg width="250" height="250" viewBox="0 0 250 250" fill="none" xmlns="http://www.w3.org/2000/svg">
<rect x="0.5" y="0.5" width="249" height="249" fill="#F3F3F3"/>
<rect x="0.5" y="0.5" width="249" height="249" stroke="#BFBEC4"/>
<path d="M40 125C40 123.343 41.3431 122 43 122H87C88.6569 122 90 123.343 90 125C90 126.657 88.6569 128 87 128H43C41.3431 128 40 126.657 40 125Z" fill="#BABABA"/>
<path d="M100 125C100 123.343 101.343 122 103 122H147C148.657 122 150 123.343 150 125C150 126.657 148.657 128 147 128H103C101.343 128 100 126.657 100 125Z" fill="#BABABA"/>
<path d="M160 125C160 123.343 161.343 122 163 122H207C208.657 122 210 123.343 210 125C210 126.657 208.657 128 207 128H163C161.343 128 160 126.657 160 125Z" fill="#BABABA"/>
<path d="M96.017 121.909L94.142 128.875H93.0994L94.9744 121.909H96.017Z" fill="#BABABA"/>
<path d="M157.017 121.909L155.142 128.875H154.099L155.974 121.909H157.017Z" fill="#BABABA"/>
</svg>
