<svg width="250" height="250" viewBox="0 0 250 250" fill="none" xmlns="http://www.w3.org/2000/svg">
<rect x="0.5" y="0.5" width="249" height="249" fill="#F3F3F3"/>
<rect x="0.5" y="0.5" width="249" height="249" stroke="#BFBEC4"/>
<path d="M40 127C40 124.239 42.2386 122 45 122H85C87.7614 122 90 124.239 90 127V127C90 129.761 87.7614 132 85 132H45C42.2386 132 40 129.761 40 127V127Z" fill="#222222"/>
<path d="M100 127C100 124.239 102.239 122 105 122H145C147.761 122 150 124.239 150 127V127C150 129.761 147.761 132 145 132H105C102.239 132 100 129.761 100 127V127Z" fill="#222222"/>
<path d="M160 127C160 124.239 162.239 122 165 122H205C207.761 122 210 124.239 210 127V127C210 129.761 207.761 132 205 132H165C162.239 132 160 129.761 160 127V127Z" fill="#222222"/>
<path d="M97.5256 121.864L94.7131 132.312H93.1491L95.9616 121.864H97.5256Z" fill="#222222"/>
<path d="M157.526 121.864L154.713 132.312H153.149L155.962 121.864H157.526Z" fill="#222222"/>
</svg>
