<svg width="250" height="250" viewBox="0 0 250 250" fill="none" xmlns="http://www.w3.org/2000/svg">
<rect x="0.5" y="0.5" width="249" height="249" fill="#F3F3F3"/>
<rect x="0.5" y="0.5" width="249" height="249" stroke="#BFBEC4"/>
<path d="M25 109C25 106.791 26.7909 105 29 105H221C223.209 105 225 106.791 225 109V141C225 143.209 223.209 145 221 145H29C26.7909 145 25 143.209 25 141V109Z" fill="#222222"/>
<path d="M75 125C75 122.239 77.2386 120 80 120H170C172.761 120 175 122.239 175 125V125C175 127.761 172.761 130 170 130H80C77.2386 130 75 127.761 75 125V125Z" fill="#FEFEFE"/>
</svg>
