<svg width="250" height="250" viewBox="0 0 250 250" fill="none" xmlns="http://www.w3.org/2000/svg">
<rect x="0.5" y="0.5" width="249" height="249" fill="#F3F3F3"/>
<rect x="0.5" y="0.5" width="249" height="249" stroke="#BFBEC4"/>
<path d="M29 90.5H81C82.933 90.5 84.5 92.067 84.5 94V156C84.5 157.933 82.933 159.5 81 159.5H29C27.067 159.5 25.5 157.933 25.5 156V94C25.5 92.067 27.067 90.5 29 90.5Z" fill="#FEFEFE" stroke="#BABABA"/>
<path d="M30 99C30 96.7909 31.7909 95 34 95H76C78.2091 95 80 96.7909 80 99V110C80 112.209 78.2091 114 76 114H34C31.7909 114 30 112.209 30 110V99Z" fill="#8D8D8D"/>
<path d="M30 123C30 121.343 31.3431 120 33 120H77C78.6569 120 80 121.343 80 123C80 124.657 78.6569 126 77 126H33C31.3431 126 30 124.657 30 123Z" fill="#BABABA"/>
<path d="M30 132C30 130.343 31.3431 129 33 129H77C78.6569 129 80 130.343 80 132C80 133.657 78.6569 135 77 135H33C31.3431 135 30 133.657 30 132Z" fill="#BABABA"/>
<path d="M30 141C30 139.343 31.3431 138 33 138H77C78.6569 138 80 139.343 80 141C80 142.657 78.6569 144 77 144H33C31.3431 144 30 142.657 30 141Z" fill="#BABABA"/>
<path d="M30 150C30 148.343 31.3431 147 33 147H57C58.6569 147 60 148.343 60 150C60 151.657 58.6569 153 57 153H33C31.3431 153 30 151.657 30 150Z" fill="#BABABA"/>
<path d="M99 90.5H151C152.933 90.5 154.5 92.067 154.5 94V156C154.5 157.933 152.933 159.5 151 159.5H99C97.067 159.5 95.5 157.933 95.5 156V94C95.5 92.067 97.067 90.5 99 90.5Z" fill="#FEFEFE" stroke="#BABABA"/>
<path d="M100 99C100 96.7909 101.791 95 104 95H146C148.209 95 150 96.7909 150 99V110C150 112.209 148.209 114 146 114H104C101.791 114 100 112.209 100 110V99Z" fill="#8D8D8D"/>
<path d="M100 123C100 121.343 101.343 120 103 120H147C148.657 120 150 121.343 150 123C150 124.657 148.657 126 147 126H103C101.343 126 100 124.657 100 123Z" fill="#BABABA"/>
<path d="M100 132C100 130.343 101.343 129 103 129H147C148.657 129 150 130.343 150 132C150 133.657 148.657 135 147 135H103C101.343 135 100 133.657 100 132Z" fill="#BABABA"/>
<path d="M100 141C100 139.343 101.343 138 103 138H147C148.657 138 150 139.343 150 141C150 142.657 148.657 144 147 144H103C101.343 144 100 142.657 100 141Z" fill="#BABABA"/>
<path d="M100 150C100 148.343 101.343 147 103 147H127C128.657 147 130 148.343 130 150C130 151.657 128.657 153 127 153H103C101.343 153 100 151.657 100 150Z" fill="#BABABA"/>
<path d="M169 90.5H221C222.933 90.5 224.5 92.067 224.5 94V156C224.5 157.933 222.933 159.5 221 159.5H169C167.067 159.5 165.5 157.933 165.5 156V94C165.5 92.067 167.067 90.5 169 90.5Z" fill="#FEFEFE" stroke="#BABABA"/>
<path d="M170 99C170 96.7909 171.791 95 174 95H216C218.209 95 220 96.7909 220 99V110C220 112.209 218.209 114 216 114H174C171.791 114 170 112.209 170 110V99Z" fill="#8D8D8D"/>
<path d="M170 123C170 121.343 171.343 120 173 120H217C218.657 120 220 121.343 220 123C220 124.657 218.657 126 217 126H173C171.343 126 170 124.657 170 123Z" fill="#BABABA"/>
<path d="M170 132C170 130.343 171.343 129 173 129H217C218.657 129 220 130.343 220 132C220 133.657 218.657 135 217 135H173C171.343 135 170 133.657 170 132Z" fill="#BABABA"/>
<path d="M170 141C170 139.343 171.343 138 173 138H217C218.657 138 220 139.343 220 141C220 142.657 218.657 144 217 144H173C171.343 144 170 142.657 170 141Z" fill="#BABABA"/>
<path d="M170 150C170 148.343 171.343 147 173 147H197C198.657 147 200 148.343 200 150C200 151.657 198.657 153 197 153H173C171.343 153 170 151.657 170 150Z" fill="#BABABA"/>
</svg>
