<svg width="319" height="250" viewBox="0 0 319 250" fill="none" xmlns="http://www.w3.org/2000/svg">
<rect x="0.5" y="0.5" width="249" height="249" fill="#F3F3F3"/>
<rect x="0.5" y="0.5" width="249" height="249" stroke="#BFBEC4"/>
<path d="M22 39H80C81.6569 39 83 40.3431 83 42V220C83 221.657 81.6569 223 80 223H22C20.3431 223 19 221.657 19 220V42C19 40.3949 20.2606 39.0842 21.8457 39.0039L22 39Z" fill="#FEFEFE" stroke="#222222" stroke-width="2"/>
<path d="M24 102C24 99.2386 26.2386 97 29 97H72C74.7614 97 77 99.2386 77 102C77 104.761 74.7565 107 71.9951 107C55.913 107 45.087 107 29.0049 107C26.2435 107 24 104.761 24 102Z" fill="#222222"/>
<path d="M24 120C24 117.239 26.2386 115 29 115H72C74.7614 115 77 117.239 77 120V120C77 122.761 74.7614 125 72 125H29C26.2386 125 24 122.761 24 120V120Z" fill="#222222"/>
<path d="M24 138C24 135.239 26.2386 133 29 133H72C74.7614 133 77 135.239 77 138V138C77 140.761 74.7614 143 72 143H29C26.2386 143 24 140.761 24 138V138Z" fill="#222222"/>
<path d="M24 156C24 153.239 26.2386 151 29 151H52C54.7614 151 57 153.239 57 156C57 158.761 54.7614 161 52 161H29C26.2386 161 24 158.761 24 156Z" fill="#222222"/>
<path d="M24 51C24 48.7909 25.7909 47 28 47H73C75.2091 47 77 48.7909 77 51V83C77 85.2091 75.2091 87 73 87H28C25.7909 87 24 85.2091 24 83V51Z" fill="#222222"/>
<path d="M97 39H155C156.657 39 158 40.3431 158 42V220C158 221.657 156.657 223 155 223H97C95.3431 223 94 221.657 94 220V42C94 40.3949 95.2606 39.0842 96.8457 39.0039L97 39Z" fill="#FEFEFE" stroke="#222222" stroke-width="2"/>
<path d="M99 102C99 99.2386 101.239 97 104 97H147C149.761 97 152 99.2386 152 102C152 104.761 149.756 107 146.995 107C130.913 107 120.087 107 104.005 107C101.244 107 99 104.761 99 102Z" fill="#222222"/>
<path d="M99 120C99 117.239 101.239 115 104 115H147C149.761 115 152 117.239 152 120V120C152 122.761 149.761 125 147 125H104C101.239 125 99 122.761 99 120V120Z" fill="#222222"/>
<path d="M99 138C99 135.239 101.239 133 104 133H147C149.761 133 152 135.239 152 138V138C152 140.761 149.761 143 147 143H104C101.239 143 99 140.761 99 138V138Z" fill="#222222"/>
<path d="M99 156C99 153.239 101.239 151 104 151H127C129.761 151 132 153.239 132 156C132 158.761 129.761 161 127 161H104C101.239 161 99 158.761 99 156Z" fill="#222222"/>
<path d="M99 51C99 48.7909 100.791 47 103 47H148C150.209 47 152 48.7909 152 51V83C152 85.2091 150.209 87 148 87H103C100.791 87 99 85.2091 99 83V51Z" fill="#222222"/>
<path d="M173 39H231C232.657 39 234 40.3431 234 42V220C234 221.657 232.657 223 231 223H173C171.343 223 170 221.657 170 220V42C170 40.3949 171.261 39.0842 172.846 39.0039L173 39Z" fill="#FEFEFE" stroke="#222222" stroke-width="2"/>
<path d="M175 102C175 99.2386 177.239 97 180 97H223C225.761 97 228 99.2386 228 102C228 104.761 225.756 107 222.995 107C206.913 107 196.087 107 180.005 107C177.244 107 175 104.761 175 102Z" fill="#222222"/>
<path d="M175 120C175 117.239 177.239 115 180 115H223C225.761 115 228 117.239 228 120V120C228 122.761 225.761 125 223 125H180C177.239 125 175 122.761 175 120V120Z" fill="#222222"/>
<path d="M175 138C175 135.239 177.239 133 180 133H223C225.761 133 228 135.239 228 138V138C228 140.761 225.761 143 223 143H180C177.239 143 175 140.761 175 138V138Z" fill="#222222"/>
<path d="M175 156C175 153.239 177.239 151 180 151H203C205.761 151 208 153.239 208 156C208 158.761 205.761 161 203 161H180C177.239 161 175 158.761 175 156Z" fill="#222222"/>
<path d="M175 51C175 48.7909 176.791 47 179 47H224C226.209 47 228 48.7909 228 51V83C228 85.2091 226.209 87 224 87H179C176.791 87 175 85.2091 175 83V51Z" fill="#222222"/>
</svg>
