<svg width="319" height="250" viewBox="0 0 319 250" fill="none" xmlns="http://www.w3.org/2000/svg">
<rect x="0.5" y="0.5" width="249" height="249" fill="#F3F3F3"/>
<rect x="0.5" y="0.5" width="249" height="249" stroke="#BFBEC4"/>
<path d="M22 50H80C81.6569 50 83 51.3431 83 53V189C83 190.657 81.6569 192 80 192H22C20.3431 192 19 190.657 19 189V53C19 51.3949 20.2606 50.0842 21.8457 50.0039L22 50Z" fill="#FEFEFE" stroke="#222222" stroke-width="2"/>
<path d="M24 113C24 110.239 26.2386 108 29 108H72C74.7614 108 77 110.239 77 113C77 115.761 74.7565 118 71.9951 118C55.913 118 45.087 118 29.0049 118C26.2435 118 24 115.761 24 113Z" fill="#222222"/>
<path d="M24 131C24 128.239 26.2386 126 29 126H72C74.7614 126 77 128.239 77 131C77 133.761 74.7614 136 72 136H29C26.2386 136 24 133.761 24 131Z" fill="#222222"/>
<path d="M24 149C24 146.239 26.2386 144 29 144H72C74.7614 144 77 146.239 77 149C77 151.761 74.7614 154 72 154H29C26.2386 154 24 151.761 24 149Z" fill="#222222"/>
<path d="M24 167C24 164.239 26.2386 162 29 162H52C54.7614 162 57 164.239 57 167C57 169.761 54.7614 172 52 172H29C26.2386 172 24 169.761 24 167Z" fill="#222222"/>
<path d="M24 62C24 59.7909 25.7909 58 28 58H73C75.2091 58 77 59.7909 77 62V94C77 96.2091 75.2091 98 73 98H28C25.7909 98 24 96.2091 24 94V62Z" fill="#8D8D8D"/>
<path d="M97 50H155C156.657 50 158 51.3431 158 53V189C158 190.657 156.657 192 155 192H97C95.3431 192 94 190.657 94 189V53C94 51.3949 95.2606 50.0842 96.8457 50.0039L97 50Z" fill="#FEFEFE" stroke="#222222" stroke-width="2"/>
<path d="M99 113C99 110.239 101.239 108 104 108H147C149.761 108 152 110.239 152 113C152 115.761 149.756 118 146.995 118C130.913 118 120.087 118 104.005 118C101.244 118 99 115.761 99 113Z" fill="#222222"/>
<path d="M99 131C99 128.239 101.239 126 104 126H147C149.761 126 152 128.239 152 131C152 133.761 149.761 136 147 136H104C101.239 136 99 133.761 99 131Z" fill="#222222"/>
<path d="M99 149C99 146.239 101.239 144 104 144H147C149.761 144 152 146.239 152 149C152 151.761 149.761 154 147 154H104C101.239 154 99 151.761 99 149Z" fill="#222222"/>
<path d="M99 167C99 164.239 101.239 162 104 162H127C129.761 162 132 164.239 132 167C132 169.761 129.761 172 127 172H104C101.239 172 99 169.761 99 167Z" fill="#222222"/>
<path d="M99 62C99 59.7909 100.791 58 103 58H148C150.209 58 152 59.7909 152 62V94C152 96.2091 150.209 98 148 98H103C100.791 98 99 96.2091 99 94V62Z" fill="#8D8D8D"/>
<path d="M173 50H231C232.657 50 234 51.3431 234 53V189C234 190.657 232.657 192 231 192H173C171.343 192 170 190.657 170 189V53C170 51.3949 171.261 50.0842 172.846 50.0039L173 50Z" fill="#FEFEFE" stroke="#222222" stroke-width="2"/>
<path d="M175 113C175 110.239 177.239 108 180 108H223C225.761 108 228 110.239 228 113C228 115.761 225.756 118 222.995 118C206.913 118 196.087 118 180.005 118C177.244 118 175 115.761 175 113Z" fill="#222222"/>
<path d="M175 131C175 128.239 177.239 126 180 126H223C225.761 126 228 128.239 228 131C228 133.761 225.761 136 223 136H180C177.239 136 175 133.761 175 131Z" fill="#222222"/>
<path d="M175 149C175 146.239 177.239 144 180 144H223C225.761 144 228 146.239 228 149C228 151.761 225.761 154 223 154H180C177.239 154 175 151.761 175 149Z" fill="#222222"/>
<path d="M175 167C175 164.239 177.239 162 180 162H203C205.761 162 208 164.239 208 167C208 169.761 205.761 172 203 172H180C177.239 172 175 169.761 175 167Z" fill="#222222"/>
<path d="M175 62C175 59.7909 176.791 58 179 58H224C226.209 58 228 59.7909 228 62V94C228 96.2091 226.209 98 224 98H179C176.791 98 175 96.2091 175 94V62Z" fill="#8D8D8D"/>
</svg>
