<svg width="250" height="250" viewBox="0 0 250 250" fill="none" xmlns="http://www.w3.org/2000/svg">
<rect x="0.5" y="0.5" width="249" height="249" fill="#F3F3F3"/>
<rect x="0.5" y="0.5" width="249" height="249" stroke="#BFBEC4"/>
<path d="M40 39H209C210.657 39 212 40.3431 212 42V207C212 208.657 210.657 210 209 210H40C38.3431 210 37 208.657 37 207V42C37 40.3431 38.3431 39 40 39Z" fill="#FEFEFE" stroke="#222222" stroke-width="2"/>
<path d="M56 122C56 119.239 58.2386 117 61 117H189C191.761 117 194 119.239 194 122C194 124.761 191.761 127 189 127C139.834 127 110.166 127 61.0002 127C58.2388 127 56 124.761 56 122Z" fill="#BABABA"/>
<path d="M56 142C56 139.239 58.2386 137 61 137H189C191.761 137 194 139.239 194 142V142C194 144.761 191.761 147 189 147H61C58.2386 147 56 144.761 56 142V142Z" fill="#BABABA"/>
<path d="M56 162C56 159.239 58.2386 157 61 157H189C191.761 157 194 159.239 194 162V162C194 164.761 191.761 167 189 167H61C58.2386 167 56 164.761 56 162V162Z" fill="#BABABA"/>
<path d="M56 182C56 179.239 58.2386 177 61 177H136C138.761 177 141 179.239 141 182C141 184.761 138.761 187 136 187H61C58.2386 187 56 184.761 56 182Z" fill="#BABABA"/>
<path d="M56 66C56 63.7909 57.7909 62 60 62H190C192.209 62 194 63.7909 194 66V98C194 100.209 192.209 102 190 102H60C57.7909 102 56 100.209 56 98V66Z" fill="#8D8D8D"/>
</svg>
