<svg width="250" height="250" viewBox="0 0 250 250" fill="none" xmlns="http://www.w3.org/2000/svg">
<rect x="0.5" y="0.5" width="249" height="249" fill="#F3F3F3"/>
<rect x="0.5" y="0.5" width="249" height="249" stroke="#BFBEC4"/>
<path d="M29 39H221C222.657 39 224 40.3431 224 42V220C224 221.657 222.657 223 221 223H29C27.3431 223 26 221.657 26 220V42C26 40.3431 27.3431 39 29 39Z" fill="#FEFEFE" stroke="#222222" stroke-width="2"/>
<path d="M44 118C44 115.239 46.2386 113 49 113H197C199.761 113 202 115.239 202 118C202 120.761 199.753 123 196.992 123C140.032 123 105.968 123 49.0083 123C46.2469 123 44 120.761 44 118Z" fill="#222222"/>
<path d="M44 138C44 135.239 46.2386 133 49 133H197C199.761 133 202 135.239 202 138V138C202 140.761 199.761 143 197 143H49C46.2386 143 44 140.761 44 138V138Z" fill="#222222"/>
<path d="M44 158C44 155.239 46.2386 153 49 153H197C199.761 153 202 155.239 202 158V158C202 160.761 199.761 163 197 163H49C46.2386 163 44 160.761 44 158V158Z" fill="#222222"/>
<path d="M44 178C44 175.239 46.2386 173 49 173H136C138.761 173 141 175.239 141 178C141 180.761 138.761 183 136 183H49C46.2386 183 44 180.761 44 178Z" fill="#222222"/>
<path d="M44 62C44 59.7909 45.7909 58 48 58H198C200.209 58 202 59.7909 202 62V94C202 96.2091 200.209 98 198 98H48C45.7909 98 44 96.2091 44 94V62Z" fill="#222222"/>
</svg>
