<svg width="250" height="250" viewBox="0 0 250 250" fill="none" xmlns="http://www.w3.org/2000/svg">
<rect x="0.5" y="0.5" width="249" height="249" fill="#F3F3F3"/>
<rect x="0.5" y="0.5" width="249" height="249" stroke="#BFBEC4"/>
<path d="M37 55H116C117.657 55 119 56.3431 119 58V191C119 192.657 117.657 194 116 194H37C35.3431 194 34 192.657 34 191V58C34 56.3431 35.3431 55 37 55Z" fill="#FEFEFE" stroke="#222222" stroke-width="2"/>
<path d="M42 118C42 115.239 44.2386 113 47 113H104C106.761 113 109 115.239 109 118C109 120.761 106.759 123 103.997 123C82.4852 123 68.5148 123 47.0025 123C44.2411 123 42 120.761 42 118Z" fill="#BABABA"/>
<path d="M42 136C42 133.239 44.2386 131 47 131H104C106.761 131 109 133.239 109 136V136C109 138.761 106.761 141 104 141H47C44.2386 141 42 138.761 42 136V136Z" fill="#BABABA"/>
<path d="M42 154C42 151.239 44.2386 149 47 149H104C106.761 149 109 151.239 109 154V154C109 156.761 106.761 159 104 159H47C44.2386 159 42 156.761 42 154V154Z" fill="#BABABA"/>
<path d="M42 172C42 169.239 44.2386 167 47 167H104C106.761 167 109 169.239 109 172C109 174.761 106.761 177 104 177H47C44.2386 177 42 174.761 42 172Z" fill="#BABABA"/>
<path d="M42 67C42 64.7909 43.7909 63 46 63H105C107.209 63 109 64.7909 109 67V99C109 101.209 107.209 103 105 103H46C43.7909 103 42 101.209 42 99V67Z" fill="#8D8D8D"/>
<path d="M134 55H213C214.657 55 216 56.3431 216 58V191C216 192.657 214.657 194 213 194H134C132.343 194 131 192.657 131 191V58C131 56.3431 132.343 55 134 55Z" fill="#FEFEFE" stroke="#222222" stroke-width="2"/>
<path d="M139 118C139 115.239 141.239 113 144 113H201C203.761 113 206 115.239 206 118C206 120.761 203.759 123 200.997 123C179.485 123 165.515 123 144.003 123C141.241 123 139 120.761 139 118Z" fill="#BABABA"/>
<path d="M139 136C139 133.239 141.239 131 144 131H201C203.761 131 206 133.239 206 136V136C206 138.761 203.761 141 201 141H144C141.239 141 139 138.761 139 136V136Z" fill="#BABABA"/>
<path d="M139 154C139 151.239 141.239 149 144 149H201C203.761 149 206 151.239 206 154V154C206 156.761 203.761 159 201 159H144C141.239 159 139 156.761 139 154V154Z" fill="#BABABA"/>
<path d="M139 172C139 169.239 141.239 167 144 167H201C203.761 167 206 169.239 206 172C206 174.761 203.761 177 201 177H144C141.239 177 139 174.761 139 172Z" fill="#BABABA"/>
<path d="M139 67C139 64.7909 140.791 63 143 63H202C204.209 63 206 64.7909 206 67V99C206 101.209 204.209 103 202 103H143C140.791 103 139 101.209 139 99V67Z" fill="#8D8D8D"/>
</svg>
