<svg width="250" height="250" viewBox="0 0 250 250" fill="none" xmlns="http://www.w3.org/2000/svg">
<rect x="0.5" y="0.5" width="249" height="249" fill="#F3F3F3"/>
<rect x="0.5" y="0.5" width="249" height="249" stroke="#BFBEC4"/>
<path d="M82 78.5H167C168.933 78.5 170.5 80.067 170.5 82V168C170.5 169.933 168.933 171.5 167 171.5H82C80.067 171.5 78.5 169.933 78.5 168V82C78.5 80.067 80.067 78.5 82 78.5Z" fill="#FEFEFE" stroke="#BABABA"/>
<path d="M88 92C88 89.7909 89.7909 88 92 88H157C159.209 88 161 89.7909 161 92V103C161 105.209 159.209 107 157 107H92C89.7909 107 88 105.209 88 103V92Z" fill="#8D8D8D"/>
<path d="M88 116C88 114.343 89.3431 113 91 113H158C159.657 113 161 114.343 161 116C161 117.657 159.657 119 158 119H91C89.3431 119 88 117.657 88 116Z" fill="#BABABA"/>
<path d="M88 125C88 123.343 89.3431 122 91 122H158C159.657 122 161 123.343 161 125C161 126.657 159.657 128 158 128H91C89.3431 128 88 126.657 88 125Z" fill="#BABABA"/>
<path d="M88 134C88 132.343 89.3431 131 91 131H158C159.657 131 161 132.343 161 134C161 135.657 159.657 137 158 137H91C89.3431 137 88 135.657 88 134Z" fill="#BABABA"/>
<path d="M88 143C88 141.343 89.3431 140 91 140H130C131.657 140 133 141.343 133 143C133 144.657 131.657 146 130 146H91C89.3431 146 88 144.657 88 143Z" fill="#BABABA"/>
</svg>
