<svg width="269" height="250" viewBox="0 0 269 250" fill="none" xmlns="http://www.w3.org/2000/svg">
<rect x="9.5" y="0.5" width="249" height="249" fill="#F3F3F3"/>
<rect x="9.5" y="0.5" width="249" height="249" stroke="#BFBEC4"/>
<path d="M242 120L247.25 125L242 130" stroke="#BABABA" stroke-width="2" stroke-linecap="round" stroke-linejoin="round"/>
<path d="M242 120L247.25 125L242 130" stroke="#222222" stroke-width="2" stroke-linecap="round" stroke-linejoin="round"/>
<path d="M26 120L20.75 125L26 130" stroke="#222222" stroke-width="2" stroke-linecap="round" stroke-linejoin="round"/>
<path d="M43 49H122C123.657 49 125 50.3431 125 52V185C125 186.657 123.657 188 122 188H43C41.3431 188 40 186.657 40 185V52C40 50.3431 41.3431 49 43 49Z" fill="#FEFEFE" stroke="#222222" stroke-width="2"/>
<path d="M48 112C48 109.239 50.2386 107 53 107H110C112.761 107 115 109.239 115 112C115 114.761 112.759 117 109.997 117C88.4852 117 74.5148 117 53.0025 117C50.2411 117 48 114.761 48 112Z" fill="#8D8D8D"/>
<path d="M48 130C48 127.239 50.2386 125 53 125H110C112.761 125 115 127.239 115 130V130C115 132.761 112.761 135 110 135H53C50.2386 135 48 132.761 48 130V130Z" fill="#8D8D8D"/>
<path d="M48 148C48 145.239 50.2386 143 53 143H110C112.761 143 115 145.239 115 148V148C115 150.761 112.761 153 110 153H53C50.2386 153 48 150.761 48 148V148Z" fill="#8D8D8D"/>
<path d="M48 166C48 163.239 50.2386 161 53 161H110C112.761 161 115 163.239 115 166C115 168.761 112.761 171 110 171H53C50.2386 171 48 168.761 48 166Z" fill="#8D8D8D"/>
<path d="M48 61C48 58.7909 49.7909 57 52 57H111C113.209 57 115 58.7909 115 61V93C115 95.2091 113.209 97 111 97H52C49.7909 97 48 95.2091 48 93V61Z" fill="#8D8D8D"/>
<circle cx="100" cy="213" r="5" fill="#222222"/>
<circle cx="114" cy="213" r="5" fill="#222222"/>
<circle cx="128" cy="213" r="5" fill="#222222"/>
<circle cx="142" cy="213" r="5" fill="#222222"/>
<circle cx="156" cy="213" r="5" fill="#222222"/>
<circle cx="170" cy="213" r="5" fill="#222222"/>
<path d="M140 49H219C220.657 49 222 50.3431 222 52V185C222 186.657 220.657 188 219 188H140C138.343 188 137 186.657 137 185V52C137 50.3431 138.343 49 140 49Z" fill="#FEFEFE" stroke="#222222" stroke-width="2"/>
<path d="M145 112C145 109.239 147.239 107 150 107H207C209.761 107 212 109.239 212 112C212 114.761 209.759 117 206.997 117C185.485 117 171.515 117 150.003 117C147.241 117 145 114.761 145 112Z" fill="#8D8D8D"/>
<path d="M145 130C145 127.239 147.239 125 150 125H207C209.761 125 212 127.239 212 130V130C212 132.761 209.761 135 207 135H150C147.239 135 145 132.761 145 130V130Z" fill="#8D8D8D"/>
<path d="M145 148C145 145.239 147.239 143 150 143H207C209.761 143 212 145.239 212 148V148C212 150.761 209.761 153 207 153H150C147.239 153 145 150.761 145 148V148Z" fill="#8D8D8D"/>
<path d="M145 166C145 163.239 147.239 161 150 161H207C209.761 161 212 163.239 212 166C212 168.761 209.761 171 207 171H150C147.239 171 145 168.761 145 166Z" fill="#8D8D8D"/>
<path d="M145 61C145 58.7909 146.791 57 149 57H208C210.209 57 212 58.7909 212 61V93C212 95.2091 210.209 97 208 97H149C146.791 97 145 95.2091 145 93V61Z" fill="#8D8D8D"/>
</svg>
