<svg width="269" height="250" viewBox="0 0 269 250" fill="none" xmlns="http://www.w3.org/2000/svg">
<rect x="9.5" y="0.5" width="249" height="249" fill="#F3F3F3"/>
<rect x="9.5" y="0.5" width="249" height="249" stroke="#BFBEC4"/>
<path d="M43 90.5H95C96.933 90.5 98.5 92.067 98.5 94V156C98.5 157.933 96.933 159.5 95 159.5H43C41.067 159.5 39.5 157.933 39.5 156V94C39.5 92.067 41.067 90.5 43 90.5Z" fill="#FEFEFE" stroke="#BABABA"/>
<path d="M44 99C44 96.7909 45.7909 95 48 95H90C92.2091 95 94 96.7909 94 99V110C94 112.209 92.2091 114 90 114H48C45.7909 114 44 112.209 44 110V99Z" fill="#8D8D8D"/>
<path d="M44 123C44 121.343 45.3431 120 47 120H91C92.6569 120 94 121.343 94 123C94 124.657 92.6569 126 91 126H47C45.3431 126 44 124.657 44 123Z" fill="#BABABA"/>
<path d="M44 132C44 130.343 45.3431 129 47 129H91C92.6569 129 94 130.343 94 132C94 133.657 92.6569 135 91 135H47C45.3431 135 44 133.657 44 132Z" fill="#BABABA"/>
<path d="M44 141C44 139.343 45.3431 138 47 138H91C92.6569 138 94 139.343 94 141C94 142.657 92.6569 144 91 144H47C45.3431 144 44 142.657 44 141Z" fill="#BABABA"/>
<path d="M44 150C44 148.343 45.3431 147 47 147H71C72.6569 147 74 148.343 74 150C74 151.657 72.6569 153 71 153H47C45.3431 153 44 151.657 44 150Z" fill="#BABABA"/>
<path d="M108 90.5H160C161.933 90.5 163.5 92.067 163.5 94V156C163.5 157.933 161.933 159.5 160 159.5H108C106.067 159.5 104.5 157.933 104.5 156V94C104.5 92.067 106.067 90.5 108 90.5Z" fill="#FEFEFE" stroke="#BABABA"/>
<path d="M109 99C109 96.7909 110.791 95 113 95H155C157.209 95 159 96.7909 159 99V110C159 112.209 157.209 114 155 114H113C110.791 114 109 112.209 109 110V99Z" fill="#8D8D8D"/>
<path d="M109 123C109 121.343 110.343 120 112 120H156C157.657 120 159 121.343 159 123C159 124.657 157.657 126 156 126H112C110.343 126 109 124.657 109 123Z" fill="#BABABA"/>
<path d="M109 132C109 130.343 110.343 129 112 129H156C157.657 129 159 130.343 159 132C159 133.657 157.657 135 156 135H112C110.343 135 109 133.657 109 132Z" fill="#BABABA"/>
<path d="M109 141C109 139.343 110.343 138 112 138H156C157.657 138 159 139.343 159 141C159 142.657 157.657 144 156 144H112C110.343 144 109 142.657 109 141Z" fill="#BABABA"/>
<path d="M109 150C109 148.343 110.343 147 112 147H136C137.657 147 139 148.343 139 150C139 151.657 137.657 153 136 153H112C110.343 153 109 151.657 109 150Z" fill="#BABABA"/>
<path d="M173 90.5H225C226.933 90.5 228.5 92.067 228.5 94V156C228.5 157.933 226.933 159.5 225 159.5H173C171.067 159.5 169.5 157.933 169.5 156V94C169.5 92.067 171.067 90.5 173 90.5Z" fill="#FEFEFE" stroke="#BABABA"/>
<path d="M174 99C174 96.7909 175.791 95 178 95H220C222.209 95 224 96.7909 224 99V110C224 112.209 222.209 114 220 114H178C175.791 114 174 112.209 174 110V99Z" fill="#8D8D8D"/>
<path d="M174 123C174 121.343 175.343 120 177 120H221C222.657 120 224 121.343 224 123C224 124.657 222.657 126 221 126H177C175.343 126 174 124.657 174 123Z" fill="#BABABA"/>
<path d="M174 132C174 130.343 175.343 129 177 129H221C222.657 129 224 130.343 224 132C224 133.657 222.657 135 221 135H177C175.343 135 174 133.657 174 132Z" fill="#BABABA"/>
<path d="M174 141C174 139.343 175.343 138 177 138H221C222.657 138 224 139.343 224 141C224 142.657 222.657 144 221 144H177C175.343 144 174 142.657 174 141Z" fill="#BABABA"/>
<path d="M174 150C174 148.343 175.343 147 177 147H201C202.657 147 204 148.343 204 150C204 151.657 202.657 153 201 153H177C175.343 153 174 151.657 174 150Z" fill="#BABABA"/>
<circle cx="106" cy="175" r="3" fill="#BABABA"/>
<circle cx="117" cy="175" r="3" fill="#BABABA"/>
<circle cx="128" cy="175" r="3" fill="#BABABA"/>
<circle cx="139" cy="175" r="3" fill="#BABABA"/>
<circle cx="150" cy="175" r="3" fill="#BABABA"/>
<circle cx="161" cy="175" r="3" fill="#BABABA"/>
<circle cx="244" cy="125" r="9.5" fill="#F3F3F3" stroke="#BABABA"/>
<path d="M242 120L247.25 125L242 130" stroke="#BABABA" stroke-width="2" stroke-linecap="round" stroke-linejoin="round"/>
<path d="M242 120L247.25 125L242 130" stroke="#BABABA" stroke-width="2" stroke-linecap="round" stroke-linejoin="round"/>
<circle cx="24" cy="125" r="9.5" fill="#F3F3F3" stroke="#BABABA"/>
<path d="M26 120L20.75 125L26 130" stroke="#BABABA" stroke-width="2" stroke-linecap="round" stroke-linejoin="round"/>
</svg>
