<svg width="321" height="250" viewBox="0 0 321 250" fill="none" xmlns="http://www.w3.org/2000/svg">
<rect x="9.5" y="0.5" width="249" height="249" fill="#F3F3F3"/>
<rect x="9.5" y="0.5" width="249" height="249" stroke="#BFBEC4"/>
<circle cx="99" cy="224" r="5" fill="#222222"/>
<circle cx="113" cy="224" r="5" fill="#222222"/>
<circle cx="127" cy="224" r="5" fill="#222222"/>
<circle cx="141" cy="224" r="5" fill="#222222"/>
<circle cx="155" cy="224" r="5" fill="#222222"/>
<circle cx="169" cy="224" r="5" fill="#222222"/>
<circle cx="244" cy="125" r="9.5" fill="#FEFEFE" stroke="#222222"/>
<path d="M242 120L247.25 125L242 130" stroke="#BABABA" stroke-width="2" stroke-linecap="round" stroke-linejoin="round"/>
<path d="M242 120L247.25 125L242 130" stroke="#222222" stroke-width="2" stroke-linecap="round" stroke-linejoin="round"/>
<circle cx="24" cy="125" r="9.5" fill="#FEFEFE" stroke="#222222"/>
<path d="M26 120L20.75 125L26 130" stroke="#222222" stroke-width="2" stroke-linecap="round" stroke-linejoin="round"/>
<path d="M43 49H92C93.6569 49 95 50.3431 95 52V209C95 210.657 93.6569 212 92 212H43C41.3431 212 40 210.657 40 209V52C40 50.3431 41.3431 49 43 49Z" fill="#FEFEFE" stroke="#222222" stroke-width="2"/>
<path d="M45 112C45 109.239 47.2386 107 50 107H84C86.7614 107 89 109.239 89 112C89 114.761 86.7582 117 83.9968 117C71.3893 117 62.6107 117 50.0032 117C47.2418 117 45 114.761 45 112Z" fill="#222222"/>
<path d="M45 130C45 127.239 47.2386 125 50 125H84C86.7614 125 89 127.239 89 130V130C89 132.761 86.7614 135 84 135H50C47.2386 135 45 132.761 45 130V130Z" fill="#222222"/>
<path d="M45 148C45 145.239 47.2386 143 50 143H84C86.7614 143 89 145.239 89 148V148C89 150.761 86.7614 153 84 153H50C47.2386 153 45 150.761 45 148V148Z" fill="#222222"/>
<path d="M45 166C45 163.239 47.2386 161 50 161H84C86.7614 161 89 163.239 89 166C89 168.761 86.7614 171 84 171H50C47.2386 171 45 168.761 45 166Z" fill="#222222"/>
<path d="M45 61C45 58.7909 46.7909 57 49 57H85C87.2091 57 89 58.7909 89 61V93C89 95.2091 87.2091 97 85 97H49C46.7909 97 45 95.2091 45 93V61Z" fill="#222222"/>
<path d="M108 49H157C158.657 49 160 50.3431 160 52V209C160 210.657 158.657 212 157 212H108C106.343 212 105 210.657 105 209V52C105 50.3431 106.343 49 108 49Z" fill="#FEFEFE" stroke="#222222" stroke-width="2"/>
<path d="M110 112C110 109.239 112.239 107 115 107H149C151.761 107 154 109.239 154 112C154 114.761 151.758 117 148.997 117C136.389 117 127.611 117 115.003 117C112.242 117 110 114.761 110 112Z" fill="#222222"/>
<path d="M110 130C110 127.239 112.239 125 115 125H149C151.761 125 154 127.239 154 130V130C154 132.761 151.761 135 149 135H115C112.239 135 110 132.761 110 130V130Z" fill="#222222"/>
<path d="M110 148C110 145.239 112.239 143 115 143H149C151.761 143 154 145.239 154 148V148C154 150.761 151.761 153 149 153H115C112.239 153 110 150.761 110 148V148Z" fill="#222222"/>
<path d="M110 166C110 163.239 112.239 161 115 161H149C151.761 161 154 163.239 154 166C154 168.761 151.761 171 149 171H115C112.239 171 110 168.761 110 166Z" fill="#222222"/>
<path d="M110 61C110 58.7909 111.791 57 114 57H150C152.209 57 154 58.7909 154 61V93C154 95.2091 152.209 97 150 97H114C111.791 97 110 95.2091 110 93V61Z" fill="#222222"/>
<path d="M175 49H224C225.657 49 227 50.3431 227 52V209C227 210.657 225.657 212 224 212H175C173.343 212 172 210.657 172 209V52C172 50.3431 173.343 49 175 49Z" fill="#FEFEFE" stroke="#222222" stroke-width="2"/>
<path d="M177 112C177 109.239 179.239 107 182 107H216C218.761 107 221 109.239 221 112C221 114.761 218.758 117 215.997 117C203.389 117 194.611 117 182.003 117C179.242 117 177 114.761 177 112Z" fill="#222222"/>
<path d="M177 130C177 127.239 179.239 125 182 125H216C218.761 125 221 127.239 221 130V130C221 132.761 218.761 135 216 135H182C179.239 135 177 132.761 177 130V130Z" fill="#222222"/>
<path d="M177 148C177 145.239 179.239 143 182 143H216C218.761 143 221 145.239 221 148V148C221 150.761 218.761 153 216 153H182C179.239 153 177 150.761 177 148V148Z" fill="#222222"/>
<path d="M177 166C177 163.239 179.239 161 182 161H216C218.761 161 221 163.239 221 166C221 168.761 218.761 171 216 171H182C179.239 171 177 168.761 177 166Z" fill="#222222"/>
<path d="M177 61C177 58.7909 178.791 57 181 57H217C219.209 57 221 58.7909 221 61V93C221 95.2091 219.209 97 217 97H181C178.791 97 177 95.2091 177 93V61Z" fill="#222222"/>
</svg>
