<svg width="250" height="250" viewBox="0 0 250 250" fill="none" xmlns="http://www.w3.org/2000/svg">
<rect x="0.5" y="0.5" width="249" height="249" fill="#F3F3F3"/>
<rect x="0.5" y="0.5" width="249" height="249" stroke="#BFBEC4"/>
<g clip-path="url(#clip0_30_376)">
<rect x="47" y="82" width="22" height="22" rx="3" fill="#222222" stroke="#222222" stroke-width="2"/>
<path d="M51 93.5556L56.3846 98L65 88" stroke="#FEFEFE" stroke-width="2" stroke-linecap="round" stroke-linejoin="round"/>
</g>
<path d="M75 93C75 90.2386 77.2386 88 80 88H190C192.761 88 195 90.2386 195 93C195 95.7614 192.761 98 190 98H80C77.2386 98 75 95.7614 75 93Z" fill="#222222"/>
<g clip-path="url(#clip1_30_376)">
<rect x="47" y="122" width="22" height="22" rx="3" fill="#222222" stroke="#222222" stroke-width="2"/>
<path d="M51 133.556L56.3846 138L65 128" stroke="#FEFEFE" stroke-width="2" stroke-linecap="round" stroke-linejoin="round"/>
</g>
<path d="M75 133C75 130.239 77.2386 128 80 128H190C192.761 128 195 130.239 195 133C195 135.761 192.761 138 190 138H80C77.2386 138 75 135.761 75 133Z" fill="#222222"/>
<rect x="47" y="162" width="22" height="22" rx="3" fill="#FEFEFE" stroke="#222222" stroke-width="2"/>
<path d="M75 173C75 170.239 77.2386 168 80 168H190C192.761 168 195 170.239 195 173C195 175.761 192.761 178 190 178H80C77.2386 178 75 175.761 75 173Z" fill="#222222"/>
<defs>
<clipPath id="clip0_30_376">
<rect x="42" y="77" width="32" height="32" rx="4" fill="white"/>
</clipPath>
<clipPath id="clip1_30_376">
<rect x="42" y="117" width="32" height="32" rx="4" fill="white"/>
</clipPath>
</defs>
</svg>
