<svg width="250" height="250" viewBox="0 0 250 250" fill="none" xmlns="http://www.w3.org/2000/svg">
<rect x="0.5" y="0.5" width="249" height="249" fill="#F3F3F3"/>
<rect x="0.5" y="0.5" width="249" height="249" stroke="#BFBEC4"/>
<rect x="1" y="-1" width="198" height="38" transform="matrix(1 0 0 -1 25 164)" fill="#222222" stroke="#222222" stroke-width="2"/>
<rect x="26" y="40" width="198" height="38" fill="#FEFEFE" stroke="#222222" stroke-width="2"/>
<rect x="26" y="89" width="198" height="38" fill="#FEFEFE" stroke="#222222" stroke-width="2"/>
<rect x="26" y="165" width="198" height="38" fill="#FEFEFE" stroke="#222222" stroke-width="2"/>
<path d="M65 108C65 105.239 67.2386 103 70 103H180C182.761 103 185 105.239 185 108C185 110.761 182.761 113 180 113H70C67.2386 113 65 110.761 65 108Z" fill="#222222"/>
<path d="M65 146C65 143.239 67.2386 141 70 141H180C182.761 141 185 143.239 185 146C185 148.761 182.761 151 180 151H70C67.2386 151 65 148.761 65 146Z" fill="#FEFEFE"/>
<path d="M65 184C65 181.239 67.2386 179 70 179H180C182.761 179 185 181.239 185 184C185 186.761 182.761 189 180 189H70C67.2386 189 65 186.761 65 184Z" fill="#222222"/>
</svg>
