<svg width="250" height="250" viewBox="0 0 250 250" fill="none" xmlns="http://www.w3.org/2000/svg">
<rect x="0.5" y="0.5" width="249" height="249" fill="#F3F3F3"/>
<rect x="0.5" y="0.5" width="249" height="249" stroke="#BFBEC4"/>
<rect x="1" y="-1" width="198" height="38" transform="matrix(1 0 0 -1 25 162)" fill="#FEFEFE" stroke="#222222" stroke-width="2"/>
<rect x="26" y="49" width="198" height="38" fill="#EFEFEF" stroke="#222222" stroke-width="2"/>
<rect x="26" y="87" width="198" height="38" fill="#FEFEFE" stroke="#222222" stroke-width="2"/>
<rect x="26" y="163" width="198" height="38" fill="#FEFEFE" stroke="#222222" stroke-width="2"/>
<path d="M65 106C65 103.239 67.2386 101 70 101H180C182.761 101 185 103.239 185 106C185 108.761 182.761 111 180 111H70C67.2386 111 65 108.761 65 106Z" fill="#222222"/>
<path d="M65 144C65 141.239 67.2386 139 70 139H180C182.761 139 185 141.239 185 144C185 146.761 182.761 149 180 149H70C67.2386 149 65 146.761 65 144Z" fill="#222222"/>
<path d="M65 182C65 179.239 67.2386 177 70 177H180C182.761 177 185 179.239 185 182C185 184.761 182.761 187 180 187H70C67.2386 187 65 184.761 65 182Z" fill="#222222"/>
</svg>
