<svg width="250" height="250" viewBox="0 0 250 250" fill="none" xmlns="http://www.w3.org/2000/svg">
<rect x="0.5" y="0.5" width="249" height="249" fill="#F3F3F3"/>
<rect x="0.5" y="0.5" width="249" height="249" stroke="#BFBEC4"/>
<g filter="url(#filter0_d_43_50)">
<rect x="30" y="45" width="189" height="166" fill="white" shape-rendering="crispEdges"/>
<rect x="30.5" y="45.5" width="188" height="165" stroke="#222222" shape-rendering="crispEdges"/>
<path d="M41 96C41 93.2386 43.2386 91 46 91H63C65.7614 91 68 93.2386 68 96V96C68 98.7614 65.7614 101 63 101H46C43.2386 101 41 98.7614 41 96V96Z" fill="#8D8D8D"/>
<path d="M76 96C76 93.2386 78.2386 91 81 91H98C100.761 91 103 93.2386 103 96V96C103 98.7614 100.761 101 98 101H81C78.2386 101 76 98.7614 76 96V96Z" fill="#8D8D8D"/>
<path d="M76 69C76 66.2386 78.2386 64 81 64H168C170.761 64 173 66.2386 173 69V69C173 71.7614 170.761 74 168 74H81C78.2386 74 76 71.7614 76 69V69Z" fill="#222222"/>
<path d="M111 96C111 93.2386 113.239 91 116 91H133C135.761 91 138 93.2386 138 96V96C138 98.7614 135.761 101 133 101H116C113.239 101 111 98.7614 111 96V96Z" fill="#8D8D8D"/>
<path d="M146 96C146 93.2386 148.239 91 151 91H168C170.761 91 173 93.2386 173 96V96C173 98.7614 170.761 101 168 101H151C148.239 101 146 98.7614 146 96V96Z" fill="#8D8D8D"/>
<path d="M181 96C181 93.2386 183.239 91 186 91H203C205.761 91 208 93.2386 208 96V96C208 98.7614 205.761 101 203 101H186C183.239 101 181 98.7614 181 96V96Z" fill="#8D8D8D"/>
<circle cx="54" cy="117" r="7" fill="#BABABA"/>
<circle cx="54" cy="138" r="7" fill="#BABABA"/>
<circle cx="54" cy="159" r="7" fill="#BABABA"/>
<circle cx="54" cy="180" r="7" fill="#BABABA"/>
<circle cx="91" cy="117" r="7" fill="#BABABA"/>
<circle cx="91" cy="138" r="7" fill="#BABABA"/>
<circle cx="91" cy="159" r="7" fill="#BABABA"/>
<circle cx="91" cy="180" r="7" fill="#BABABA"/>
<circle cx="126" cy="117" r="7" fill="#BABABA"/>
<circle cx="126" cy="138" r="7" fill="#BABABA"/>
<circle cx="126" cy="159" r="7" fill="#BABABA"/>
<circle cx="126" cy="180" r="7" fill="#BABABA"/>
<circle cx="161" cy="117" r="7" fill="#222222"/>
<circle cx="161" cy="138" r="7" fill="#BABABA"/>
<circle cx="161" cy="159" r="7" fill="#BABABA"/>
<circle cx="161" cy="180" r="7" fill="#BABABA"/>
<circle cx="196" cy="117" r="7" fill="#BABABA"/>
<circle cx="196" cy="138" r="7" fill="#BABABA"/>
<circle cx="196" cy="159" r="7" fill="#BABABA"/>
<circle cx="196" cy="180" r="7" fill="#BABABA"/>
<path d="M192 64L197.25 69L192 74" stroke="#222222" stroke-width="2" stroke-linecap="round" stroke-linejoin="round"/>
<path d="M56 64L50.75 69L56 74" stroke="#222222" stroke-width="2" stroke-linecap="round" stroke-linejoin="round"/>
</g>
<defs>
<filter id="filter0_d_43_50" x="30" y="45" width="198" height="178" filterUnits="userSpaceOnUse" color-interpolation-filters="sRGB">
<feFlood flood-opacity="0" result="BackgroundImageFix"/>
<feColorMatrix in="SourceAlpha" type="matrix" values="0 0 0 0 0 0 0 0 0 0 0 0 0 0 0 0 0 0 127 0" result="hardAlpha"/>
<feOffset dx="5" dy="8"/>
<feGaussianBlur stdDeviation="2"/>
<feComposite in2="hardAlpha" operator="out"/>
<feColorMatrix type="matrix" values="0 0 0 0 0 0 0 0 0 0 0 0 0 0 0 0 0 0 0.1 0"/>
<feBlend mode="normal" in2="BackgroundImageFix" result="effect1_dropShadow_43_50"/>
<feBlend mode="normal" in="SourceGraphic" in2="effect1_dropShadow_43_50" result="shape"/>
</filter>
</defs>
</svg>
