<svg width="250" height="250" viewBox="0 0 250 250" fill="none" xmlns="http://www.w3.org/2000/svg">
<rect x="0.5" y="0.5" width="249" height="249" fill="#F3F3F3"/>
<rect x="0.5" y="0.5" width="249" height="249" stroke="#BFBEC4"/>
<rect x="26" y="49" width="198" height="165" fill="#FEFEFE" stroke="#222222" stroke-width="2"/>
<rect x="66" y="149" width="118" height="28" fill="#222222" stroke="#222222" stroke-width="2"/>
<path d="M65 111C65 108.239 67.2386 106 70 106H180C182.761 106 185 108.239 185 111C185 113.761 182.761 116 180 116H70C67.2386 116 65 113.761 65 111Z" fill="#BABABA"/>
<path d="M65 128C65 125.239 67.2386 123 70 123H180C182.761 123 185 125.239 185 128C185 130.761 182.761 133 180 133H70C67.2386 133 65 130.761 65 128Z" fill="#BABABA"/>
<path d="M133 84.9999C133.552 84.9999 134 85.4476 134 85.9999V91.9999C134 92.5522 133.552 92.9999 133 92.9999H117C116.448 92.9999 116 92.5522 116 91.9999V85.9999C116 85.4476 116.448 84.9999 117 84.9999C117.552 84.9999 118 85.4476 118 85.9999V90.9999H132V85.9999C132 85.4476 132.448 84.9999 133 84.9999ZM124.293 75.2929C124.683 74.9024 125.317 74.9024 125.707 75.2929L128.707 78.2929C129.098 78.6834 129.098 79.3164 128.707 79.707C128.317 80.0975 127.683 80.0975 127.293 79.707L126 78.414V87.9999C126 88.5522 125.552 88.9999 125 88.9999C124.448 88.9999 124 88.5522 124 87.9999V78.414L122.707 79.707C122.317 80.0975 121.683 80.0975 121.293 79.707C120.902 79.3164 120.902 78.6834 121.293 78.2929L124.293 75.2929Z" fill="#14131B"/>
</svg>
