<svg width="250" height="250" viewBox="0 0 250 250" fill="none" xmlns="http://www.w3.org/2000/svg">
<rect x="0.5" y="0.5" width="249" height="249" fill="#F3F3F3"/>
<rect x="0.5" y="0.5" width="249" height="249" stroke="#BFBEC4"/>
<path d="M23 101C23 98.2386 25.2386 96 28 96H95C97.7614 96 100 98.2386 100 101V101C100 103.761 97.7614 106 95 106H28C25.2386 106 23 103.761 23 101V101Z" fill="#BABABA"/>
<path d="M23 119C23 116.239 25.2386 114 28 114H66C68.7614 114 71 116.239 71 119V119C71 121.761 68.7614 124 66 124H28C25.2386 124 23 121.761 23 119V119Z" fill="#BABABA"/>
<path d="M106 101C106 98.2386 108.239 96 111 96H149C151.761 96 154 98.2386 154 101V101C154 103.761 151.761 106 149 106H111C108.239 106 106 103.761 106 101V101Z" fill="#BABABA"/>
<path d="M79 119C79 116.239 81.2386 114 84 114H149C151.761 114 154 116.239 154 119V119C154 121.761 151.761 124 149 124H84C81.2386 124 79 121.761 79 119V119Z" fill="#BABABA"/>
<path d="M160 137C160 134.239 162.239 132 165 132H230C232.761 132 235 134.239 235 137V137C235 139.761 232.761 142 230 142H165C162.239 142 160 139.761 160 137V137Z" fill="#BABABA"/>
<path d="M112 137C112 134.239 114.239 132 117 132H149C151.761 132 154 134.239 154 137V137C154 139.761 151.761 142 149 142H117C114.239 142 112 139.761 112 137V137Z" fill="#222222"/>
<path d="M160 101C160 98.2386 162.239 96 165 96H232C234.761 96 237 98.2386 237 101V101C237 103.761 234.761 106 232 106H165C162.239 106 160 103.761 160 101V101Z" fill="#BABABA"/>
<path d="M160 119C160 116.239 162.239 114 165 114H232C234.761 114 237 116.239 237 119V119C237 121.761 234.761 124 232 124H165C162.239 124 160 121.761 160 119V119Z" fill="#BABABA"/>
<path d="M22 137C22 134.239 24.2386 132 27 132H101C103.761 132 106 134.239 106 137V137C106 139.761 103.761 142 101 142H27C24.2386 142 22 139.761 22 137V137Z" fill="#BABABA"/>
</svg>
