<svg width="250" height="250" viewBox="0 0 250 250" fill="none" xmlns="http://www.w3.org/2000/svg">
<rect x="0.5" y="0.5" width="249" height="249" fill="#F3F3F3"/>
<rect x="0.5" y="0.5" width="249" height="249" stroke="#BFBEC4"/>
<path d="M23 109C23 107.343 24.3431 106 26 106H97C98.6569 106 100 107.343 100 109C100 110.657 98.6569 112 97 112H26C24.3431 112 23 110.657 23 109Z" fill="#BABABA"/>
<path d="M23 122C23 120.343 24.3431 119 26 119H68C69.6569 119 71 120.343 71 122C71 123.657 69.6569 125 68 125H26C24.3431 125 23 123.657 23 122Z" fill="#BABABA"/>
<path d="M106 109C106 107.343 107.343 106 109 106H151C152.657 106 154 107.343 154 109C154 110.657 152.657 112 151 112H109C107.343 112 106 110.657 106 109Z" fill="#BABABA"/>
<path d="M79 122C79 120.343 80.3431 119 82 119H151C152.657 119 154 120.343 154 122C154 123.657 152.657 125 151 125H82C80.3431 125 79 123.657 79 122Z" fill="#BABABA"/>
<path d="M160 135C160 133.343 161.343 132 163 132H232C233.657 132 235 133.343 235 135C235 136.657 233.657 138 232 138H163C161.343 138 160 136.657 160 135Z" fill="#BABABA"/>
<path d="M112 135C112 133.343 113.343 132 115 132H151C152.657 132 154 133.343 154 135C154 136.657 152.657 138 151 138H115C113.343 138 112 136.657 112 135Z" fill="#8D8D8D"/>
<path d="M160 109C160 107.343 161.343 106 163 106H234C235.657 106 237 107.343 237 109C237 110.657 235.657 112 234 112H163C161.343 112 160 110.657 160 109Z" fill="#BABABA"/>
<path d="M160 122C160 120.343 161.343 119 163 119H234C235.657 119 237 120.343 237 122C237 123.657 235.657 125 234 125H163C161.343 125 160 123.657 160 122Z" fill="#BABABA"/>
<path d="M22 135C22 133.343 23.3431 132 25 132H103C104.657 132 106 133.343 106 135C106 136.657 104.657 138 103 138H25C23.3431 138 22 136.657 22 135Z" fill="#BABABA"/>
</svg>
