<svg width="250" height="250" viewBox="0 0 250 250" fill="none" xmlns="http://www.w3.org/2000/svg">
<rect x="0.5" y="0.5" width="249" height="249" fill="#F3F3F3"/>
<rect x="0.5" y="0.5" width="249" height="249" stroke="#BFBEC4"/>
<rect x="26" y="116" width="198" height="38" fill="#FEFEFE" stroke="#222222" stroke-width="2"/>
<mask id="path-3-inside-1_30_635" fill="white">
<path d="M201 129C203.036 129 204.955 130.061 206.402 131.142C207.874 132.241 209.009 133.474 209.501 134.042C209.98 134.594 209.98 135.406 209.501 135.958C209.009 136.526 207.874 137.759 206.402 138.858C204.955 139.939 203.036 141 201 141C198.964 141 197.046 139.939 195.599 138.858C194.127 137.759 192.992 136.526 192.499 135.958C192.021 135.406 192.021 134.594 192.499 134.042C192.992 133.474 194.127 132.241 195.599 131.142C197.046 130.061 198.964 129 201 129ZM201 131C199.618 131 198.132 131.746 196.795 132.744C195.734 133.537 194.859 134.42 194.327 135C194.859 135.58 195.734 136.463 196.795 137.256C198.132 138.254 199.618 139 201 139C202.383 139 203.869 138.254 205.205 137.256C206.267 136.464 207.141 135.58 207.672 135C207.141 134.42 206.267 133.536 205.205 132.744C203.869 131.746 202.383 131 201 131ZM201 133C202.105 133 203 133.895 203 135C203 136.105 202.105 137 201 137C199.896 137 199 136.105 199 135C199 133.895 199.896 133 201 133Z"/>
</mask>
<path d="M201 129C203.036 129 204.955 130.061 206.402 131.142C207.874 132.241 209.009 133.474 209.501 134.042C209.98 134.594 209.98 135.406 209.501 135.958C209.009 136.526 207.874 137.759 206.402 138.858C204.955 139.939 203.036 141 201 141C198.964 141 197.046 139.939 195.599 138.858C194.127 137.759 192.992 136.526 192.499 135.958C192.021 135.406 192.021 134.594 192.499 134.042C192.992 133.474 194.127 132.241 195.599 131.142C197.046 130.061 198.964 129 201 129ZM201 131C199.618 131 198.132 131.746 196.795 132.744C195.734 133.537 194.859 134.42 194.327 135C194.859 135.58 195.734 136.463 196.795 137.256C198.132 138.254 199.618 139 201 139C202.383 139 203.869 138.254 205.205 137.256C206.267 136.464 207.141 135.58 207.672 135C207.141 134.42 206.267 133.536 205.205 132.744C203.869 131.746 202.383 131 201 131ZM201 133C202.105 133 203 133.895 203 135C203 136.105 202.105 137 201 137C199.896 137 199 136.105 199 135C199 133.895 199.896 133 201 133Z" fill="#222222"/>
<path d="M201 129L201 128H201V129ZM206.402 131.142L207 130.34L207 130.34L206.402 131.142ZM209.501 134.042L210.257 133.387L210.257 133.387L209.501 134.042ZM209.501 135.958L210.257 136.613L210.257 136.613L209.501 135.958ZM206.402 138.858L207 139.66L207 139.66L206.402 138.858ZM201 141V142H201L201 141ZM195.599 138.858L195.001 139.66L195.001 139.66L195.599 138.858ZM192.499 135.958L191.744 136.613L191.744 136.613L192.499 135.958ZM192.499 134.042L191.744 133.387L191.744 133.387L192.499 134.042ZM195.599 131.142L195.001 130.34L195.001 130.34L195.599 131.142ZM201 131L201 130H201V131ZM196.795 132.744L196.197 131.943L196.197 131.943L196.795 132.744ZM194.327 135L193.59 134.324L192.971 135L193.59 135.676L194.327 135ZM196.795 137.256L196.197 138.057L196.197 138.057L196.795 137.256ZM201 139V140H201L201 139ZM205.205 137.256L205.804 138.057L205.804 138.057L205.205 137.256ZM207.672 135L208.409 135.676L209.029 135L208.409 134.324L207.672 135ZM205.205 132.744L205.804 131.943L205.804 131.943L205.205 132.744ZM201 133L201 132H201V133ZM201 137V138H201L201 137ZM201 129L201 130C202.71 130 204.412 130.904 205.803 131.943L206.402 131.142L207 130.34C205.498 129.219 203.363 128 201 128L201 129ZM206.402 131.142L205.803 131.943C207.195 132.982 208.276 134.156 208.746 134.697L209.501 134.042L210.257 133.387C209.741 132.792 208.553 131.5 207 130.34L206.402 131.142ZM209.501 134.042L208.746 134.697C208.898 134.873 208.898 135.127 208.746 135.303L209.501 135.958L210.257 136.613C211.061 135.685 211.061 134.315 210.257 133.387L209.501 134.042ZM209.501 135.958L208.746 135.303C208.276 135.844 207.195 137.018 205.803 138.057L206.402 138.858L207 139.66C208.553 138.5 209.741 137.208 210.257 136.613L209.501 135.958ZM206.402 138.858L205.803 138.057C204.412 139.096 202.71 140 201 140L201 141L201 142C203.363 142 205.498 140.781 207 139.66L206.402 138.858ZM201 141V140C199.291 140 197.589 139.096 196.197 138.057L195.599 138.858L195.001 139.66C196.503 140.781 198.638 142 201 142V141ZM195.599 138.858L196.197 138.057C194.806 137.018 193.724 135.844 193.255 135.303L192.499 135.958L191.744 136.613C192.259 137.208 193.448 138.5 195.001 139.66L195.599 138.858ZM192.499 135.958L193.255 135.303C193.102 135.127 193.102 134.873 193.255 134.697L192.499 134.042L191.744 133.387C190.94 134.315 190.94 135.685 191.744 136.613L192.499 135.958ZM192.499 134.042L193.255 134.697C193.724 134.156 194.806 132.982 196.197 131.943L195.599 131.142L195.001 130.34C193.448 131.5 192.259 132.792 191.744 133.387L192.499 134.042ZM195.599 131.142L196.197 131.943C197.589 130.904 199.291 130 201 130V129V128C198.638 128 196.503 129.219 195.001 130.34L195.599 131.142ZM201 131V130C199.291 130 197.589 130.904 196.197 131.943L196.795 132.744L197.393 133.545C198.675 132.589 199.944 132 201 132V131ZM196.795 132.744L196.197 131.943C195.067 132.786 194.145 133.719 193.59 134.324L194.327 135L195.065 135.676C195.573 135.121 196.4 134.287 197.393 133.545L196.795 132.744ZM194.327 135L193.59 135.676C194.145 136.281 195.067 137.214 196.197 138.057L196.795 137.256L197.393 136.455C196.4 135.713 195.573 134.879 195.065 134.324L194.327 135ZM196.795 137.256L196.197 138.057C197.589 139.096 199.291 140 201 140V139V138C199.944 138 198.675 137.411 197.393 136.455L196.795 137.256ZM201 139L201 140C202.71 140 204.412 139.096 205.804 138.057L205.205 137.256L204.607 136.455C203.326 137.411 202.056 138 201 138L201 139ZM205.205 137.256L205.804 138.057C206.934 137.214 207.855 136.281 208.409 135.676L207.672 135L206.935 134.324C206.426 134.879 205.6 135.714 204.607 136.455L205.205 137.256ZM207.672 135L208.409 134.324C207.855 133.719 206.934 132.786 205.804 131.943L205.205 132.744L204.607 133.545C205.6 134.286 206.426 135.121 206.935 135.676L207.672 135ZM205.205 132.744L205.804 131.943C204.412 130.904 202.71 130 201 130L201 131L201 132C202.056 132 203.326 132.589 204.607 133.545L205.205 132.744ZM201 133L201 134C201.553 134 202 134.448 202 135H203H204C204 133.343 202.657 132 201 132L201 133ZM203 135H202C202 135.552 201.553 136 201 136L201 137L201 138C202.657 138 204 136.657 204 135H203ZM201 137V136C200.448 136 200 135.552 200 135H199H198C198 136.657 199.343 138 201 138V137ZM199 135H200C200 134.448 200.448 134 201 134V133V132C199.343 132 198 133.343 198 135H199Z" fill="#222222" mask="url(#path-3-inside-1_30_635)"/>
<path d="M38.8168 137.182L38.9233 135.533L37.5426 136.457L36.9716 135.452L38.4588 134.727L36.9716 134.003L37.5426 132.997L38.9233 133.922L38.8168 132.273H39.9631L39.8523 133.922L41.233 132.997L41.804 134.003L40.321 134.727L41.804 135.452L41.233 136.457L39.8523 135.533L39.9631 137.182H38.8168ZM48.3675 137.182L48.4741 135.533L47.0934 136.457L46.5224 135.452L48.0096 134.727L46.5224 134.003L47.0934 132.997L48.4741 133.922L48.3675 132.273H49.5138L49.4031 133.922L50.7837 132.997L51.3548 134.003L49.8718 134.727L51.3548 135.452L50.7837 136.457L49.4031 135.533L49.5138 137.182H48.3675ZM57.9183 137.182L58.0249 135.533L56.6442 136.457L56.0732 135.452L57.5604 134.727L56.0732 134.003L56.6442 132.997L58.0249 133.922L57.9183 132.273H59.0646L58.9538 133.922L60.3345 132.997L60.9055 134.003L59.4226 134.727L60.9055 135.452L60.3345 136.457L58.9538 135.533L59.0646 137.182H57.9183ZM67.4691 137.182L67.5756 135.533L66.195 136.457L65.6239 135.452L67.1112 134.727L65.6239 134.003L66.195 132.997L67.5756 133.922L67.4691 132.273H68.6154L68.5046 133.922L69.8853 132.997L70.4563 134.003L68.9734 134.727L70.4563 135.452L69.8853 136.457L68.5046 135.533L68.6154 137.182H67.4691ZM77.0199 137.182L77.1264 135.533L75.7457 136.457L75.1747 135.452L76.6619 134.727L75.1747 134.003L75.7457 132.997L77.1264 133.922L77.0199 132.273H78.1662L78.0554 133.922L79.4361 132.997L80.0071 134.003L78.5241 134.727L80.0071 135.452L79.4361 136.457L78.0554 135.533L78.1662 137.182H77.0199ZM86.5707 137.182L86.6772 135.533L85.2965 136.457L84.7255 135.452L86.2127 134.727L84.7255 134.003L85.2965 132.997L86.6772 133.922L86.5707 132.273H87.717L87.6062 133.922L88.9869 132.997L89.5579 134.003L88.0749 134.727L89.5579 135.452L88.9869 136.457L87.6062 135.533L87.717 137.182H86.5707ZM96.1214 137.182L96.228 135.533L94.8473 136.457L94.2763 135.452L95.7635 134.727L94.2763 134.003L94.8473 132.997L96.228 133.922L96.1214 132.273H97.2678L97.157 133.922L98.5376 132.997L99.1087 134.003L97.6257 134.727L99.1087 135.452L98.5376 136.457L97.157 135.533L97.2678 137.182H96.1214ZM102.895 137.182L103.001 135.533L101.621 136.457L101.05 135.452L102.537 134.727L101.05 134.003L101.621 132.997L103.001 133.922L102.895 132.273H104.041L103.93 133.922L105.311 132.997L105.882 134.003L104.399 134.727L105.882 135.452L105.311 136.457L103.93 135.533L104.041 137.182H102.895ZM109.668 137.182L109.775 135.533L108.394 136.457L107.823 135.452L109.31 134.727L107.823 134.003L108.394 132.997L109.775 133.922L109.668 132.273H110.815L110.704 133.922L112.085 132.997L112.656 134.003L111.173 134.727L112.656 135.452L112.085 136.457L110.704 135.533L110.815 137.182H109.668ZM116.442 137.182L116.548 135.533L115.168 136.457L114.597 135.452L116.084 134.727L114.597 134.003L115.168 132.997L116.548 133.922L116.442 132.273H117.588L117.477 133.922L118.858 132.997L119.429 134.003L117.946 134.727L119.429 135.452L118.858 136.457L117.477 135.533L117.588 137.182H116.442Z" fill="#222222"/>
</svg>
