<svg width="250" height="250" viewBox="0 0 250 250" fill="none" xmlns="http://www.w3.org/2000/svg">
<rect x="0.5" y="0.5" width="249" height="249" fill="#F3F3F3"/>
<rect x="0.5" y="0.5" width="249" height="249" stroke="#BFBEC4"/>
<g clip-path="url(#clip0_38_167)">
<rect x="56" y="86" width="138" height="72" fill="#FEFEFE" stroke="#222222" stroke-width="2"/>
<rect x="56" y="86" width="138" height="18" fill="#FEFEFE" stroke="#222222" stroke-width="2"/>
<path d="M62 116C62 113.239 64.2386 111 67 111H177C179.761 111 182 113.239 182 116V116C182 118.761 179.761 121 177 121H67C64.2386 121 62 118.761 62 116V116Z" fill="#8D8D8D"/>
<path d="M182.556 89C185.01 89.0002 187 90.9899 187 93.4443C187 95.8988 185.01 97.8885 182.556 97.8887C181.691 97.8887 180.884 97.6403 180.201 97.2129L178.263 99.1523C177.872 99.5424 177.239 99.5422 176.849 99.1523C176.458 98.7618 176.458 98.1278 176.849 97.7373L178.786 95.7988C178.359 95.1161 178.111 94.3093 178.111 93.4443C178.111 90.9898 180.101 89.0001 182.556 89ZM182.556 91C181.206 91.0001 180.111 92.0944 180.111 93.4443C180.111 94.7943 181.206 95.8886 182.556 95.8887C183.906 95.8885 185 94.7942 185 93.4443C185 92.0945 183.905 91.0002 182.556 91Z" fill="#222222"/>
<path d="M62 130C62 127.239 64.2386 125 67 125H177C179.761 125 182 127.239 182 130V130C182 132.761 179.761 135 177 135H67C64.2386 135 62 132.761 62 130V130Z" fill="#8D8D8D"/>
<path d="M62 145C62 142.239 64.2386 140 67 140H149C151.761 140 154 142.239 154 145V145C154 147.761 151.761 150 149 150H67C64.2386 150 62 147.761 62 145V145Z" fill="#8D8D8D"/>
</g>
<defs>
<clipPath id="clip0_38_167">
<rect width="140" height="88" fill="white" transform="translate(55 71)"/>
</clipPath>
</defs>
</svg>
