<svg width="250" height="250" viewBox="0 0 250 250" fill="none" xmlns="http://www.w3.org/2000/svg">
<rect x="0.5" y="0.5" width="249" height="249" fill="#F3F3F3"/>
<rect x="0.5" y="0.5" width="249" height="249" stroke="#BFBEC4"/>
<rect x="1" y="-1" width="198" height="38" transform="matrix(1 0 0 -1 25 162)" fill="#FEFEFE" stroke="#222222" stroke-width="2"/>
<rect x="26" y="49" width="198" height="38" fill="#EFEFEF" stroke="#222222" stroke-width="2"/>
<rect x="26" y="87" width="198" height="38" fill="#FEFEFE" stroke="#222222" stroke-width="2"/>
<rect x="26" y="163" width="198" height="38" fill="#FEFEFE" stroke="#222222" stroke-width="2"/>
<path d="M65 108C65 105.239 67.2386 103 70 103H180C182.761 103 185 105.239 185 108C185 110.761 182.761 113 180 113H70C67.2386 113 65 110.761 65 108Z" fill="#222222"/>
<path d="M65 145C65 142.239 67.2386 140 70 140H180C182.761 140 185 142.239 185 145C185 147.761 182.761 150 180 150H70C67.2386 150 65 147.761 65 145Z" fill="#222222"/>
<path d="M65 183C65 180.239 67.2386 178 70 178H180C182.761 178 185 180.239 185 183C185 185.761 182.761 188 180 188H70C67.2386 188 65 185.761 65 183Z" fill="#222222"/>
<path d="M206 65L201 70.25L196 65" stroke="#222222" stroke-width="2" stroke-linecap="round" stroke-linejoin="round"/>
</svg>
