<svg width="250" height="250" viewBox="0 0 250 250" fill="none" xmlns="http://www.w3.org/2000/svg">
<rect x="0.5" y="0.5" width="249" height="249" fill="#F3F3F3"/>
<rect x="0.5" y="0.5" width="249" height="249" stroke="#BFBEC4"/>
<rect x="44.5" y="67.5" width="161" height="23" fill="#8D8D8D" stroke="#BABABA"/>
<rect x="44.5" y="90.5" width="23" height="23" fill="#FEFEFE" stroke="#BABABA"/>
<rect x="90.5" y="90.5" width="23" height="23" fill="#FEFEFE" stroke="#BABABA"/>
<rect x="136.5" y="90.5" width="23" height="23" fill="#FEFEFE" stroke="#BABABA"/>
<rect x="67.5" y="90.5" width="23" height="23" fill="#FEFEFE" stroke="#BABABA"/>
<rect x="113.5" y="90.5" width="23" height="23" fill="#FEFEFE" stroke="#BABABA"/>
<rect x="159.5" y="90.5" width="23" height="23" fill="#FEFEFE" stroke="#BABABA"/>
<rect x="182.5" y="90.5" width="23" height="23" fill="#FEFEFE" stroke="#BABABA"/>
<rect x="44.5" y="113.5" width="23" height="23" fill="#FEFEFE" stroke="#BABABA"/>
<rect x="90.5" y="113.5" width="23" height="23" fill="#FEFEFE" stroke="#BABABA"/>
<rect x="136.5" y="113.5" width="23" height="23" fill="#FEFEFE" stroke="#BABABA"/>
<rect x="67.5" y="113.5" width="23" height="23" fill="#FEFEFE" stroke="#BABABA"/>
<rect x="113.5" y="113.5" width="23" height="23" fill="#FEFEFE" stroke="#BABABA"/>
<rect x="159.5" y="113.5" width="23" height="23" fill="#FEFEFE" stroke="#BABABA"/>
<rect x="182.5" y="113.5" width="23" height="23" fill="#FEFEFE" stroke="#BABABA"/>
<rect x="44.5" y="136.5" width="23" height="23" fill="#FEFEFE" stroke="#BABABA"/>
<rect x="90.5" y="136.5" width="23" height="23" fill="#FEFEFE" stroke="#BABABA"/>
<rect x="136.5" y="136.5" width="23" height="23" fill="#FEFEFE" stroke="#BABABA"/>
<rect x="67.5" y="136.5" width="23" height="23" fill="#FEFEFE" stroke="#BABABA"/>
<rect x="113.5" y="136.5" width="23" height="23" fill="#FEFEFE" stroke="#BABABA"/>
<rect x="159.5" y="136.5" width="23" height="23" fill="#FEFEFE" stroke="#BABABA"/>
<rect x="182.5" y="136.5" width="23" height="23" fill="#FEFEFE" stroke="#BABABA"/>
<rect x="44.5" y="159.5" width="23" height="23" fill="#FEFEFE" stroke="#BABABA"/>
<rect x="90.5" y="159.5" width="23" height="23" fill="#FEFEFE" stroke="#BABABA"/>
<rect x="136.5" y="159.5" width="23" height="23" fill="#FEFEFE" stroke="#BABABA"/>
<rect x="67.5" y="159.5" width="23" height="23" fill="#FEFEFE" stroke="#BABABA"/>
<rect x="113.5" y="159.5" width="23" height="23" fill="#FEFEFE" stroke="#BABABA"/>
<rect x="159.5" y="159.5" width="23" height="23" fill="#FEFEFE" stroke="#BABABA"/>
<rect x="182.5" y="159.5" width="23" height="23" fill="#FEFEFE" stroke="#BABABA"/>
</svg>
