<svg width="250" height="250" viewBox="0 0 250 250" fill="none" xmlns="http://www.w3.org/2000/svg">
<rect x="0.5" y="0.5" width="249" height="249" fill="#F3F3F3"/>
<rect x="0.5" y="0.5" width="249" height="249" stroke="#BFBEC4"/>
<path d="M89 69.5H121C122.933 69.5 124.5 71.067 124.5 73V79C124.5 80.933 122.933 82.5 121 82.5H89C87.067 82.5 85.5 80.933 85.5 79V73C85.5 71.067 87.067 69.5 89 69.5Z" fill="#F3F3F3" stroke="#BABABA"/>
<path d="M132 69.5H164C165.933 69.5 167.5 71.067 167.5 73V79C167.5 80.933 165.933 82.5 164 82.5H132C130.067 82.5 128.5 80.933 128.5 79V73C128.5 71.067 130.067 69.5 132 69.5Z" fill="#F3F3F3" stroke="#BABABA"/>
<rect x="42.5" y="79.5" width="164" height="90" fill="#FEFEFE" stroke="#BABABA"/>
<path d="M58 111C58 109.343 59.3431 108 61 108H142C143.657 108 145 109.343 145 111C145 112.657 143.657 114 142 114H61C59.3431 114 58 112.657 58 111Z" fill="#BABABA"/>
<path d="M58 144C58 142.343 59.3431 141 61 141H142C143.657 141 145 142.343 145 144C145 145.657 143.657 147 142 147H61C59.3431 147 58 145.657 58 144Z" fill="#BABABA"/>
<path d="M151 111C151 109.343 152.343 108 154 108H188C189.657 108 191 109.343 191 111C191 112.657 189.657 114 188 114H154C152.343 114 151 112.657 151 111Z" fill="#BABABA"/>
<path d="M151 144C151 142.343 152.343 141 154 141H188C189.657 141 191 142.343 191 144C191 145.657 189.657 147 188 147H154C152.343 147 151 145.657 151 144Z" fill="#BABABA"/>
<path d="M58 100C58 98.3431 59.3431 97 61 97H122C123.657 97 125 98.3431 125 100C125 101.657 123.657 103 122 103H61C59.3431 103 58 101.657 58 100Z" fill="#BABABA"/>
<path d="M58 122C58 120.343 59.3431 119 61 119H188C189.657 119 191 120.343 191 122C191 123.657 189.657 125 188 125H61C59.3431 125 58 123.657 58 122Z" fill="#BABABA"/>
<path d="M58 133C58 131.343 59.3431 130 61 130H103C104.657 130 106 131.343 106 133C106 134.657 104.657 136 103 136H61C59.3431 136 58 134.657 58 133Z" fill="#BABABA"/>
<path d="M111 133C111 131.343 112.343 130 114 130H188C189.657 130 191 131.343 191 133C191 134.657 189.657 136 188 136H114C112.343 136 111 134.657 111 133Z" fill="#BABABA"/>
<path d="M46 69.5H78C79.933 69.5 81.5 71.067 81.5 73V82.5H42.5V73C42.5 71.067 44.067 69.5 46 69.5Z" fill="#FEFEFE" stroke="#BABABA"/>
<rect x="43" y="80" width="39" height="14" fill="#FEFEFE"/>
</svg>
