<svg width="250" height="250" viewBox="0 0 250 250" fill="none" xmlns="http://www.w3.org/2000/svg">
<rect x="0.5" y="0.5" width="249" height="249" fill="#F3F3F3"/>
<rect x="0.5" y="0.5" width="249" height="249" stroke="#BFBEC4"/>
<path d="M89 64H121C122.657 64 124 65.3431 124 67V79C124 80.6569 122.657 82 121 82H89C87.3431 82 86 80.6569 86 79V67C86 65.3431 87.3431 64 89 64Z" fill="#EFEFEF" stroke="#222222" stroke-width="2"/>
<path d="M132 64H164C165.657 64 167 65.3431 167 67V79C167 80.6569 165.657 82 164 82H132C130.343 82 129 80.6569 129 79V67C129 65.3431 130.343 64 132 64Z" fill="#EFEFEF" stroke="#222222" stroke-width="2"/>
<rect x="43" y="80" width="163" height="89" fill="#FEFEFE" stroke="#222222" stroke-width="2"/>
<path d="M58 146C58 143.239 60.2386 141 63 141H140C142.761 141 145 143.239 145 146V146C145 148.761 142.761 151 140 151H63C60.2386 151 58 148.761 58 146V146Z" fill="#BABABA"/>
<path d="M151 146C151 143.239 153.239 141 156 141H186C188.761 141 191 143.239 191 146V146C191 148.761 188.761 151 186 151H156C153.239 151 151 148.761 151 146V146Z" fill="#BABABA"/>
<path d="M58 102C58 99.2386 60.2386 97 63 97H120C122.761 97 125 99.2386 125 102V102C125 104.761 122.761 107 120 107H63C60.2386 107 58 104.761 58 102V102Z" fill="#BABABA"/>
<path d="M58 117C58 114.239 60.2386 112 63 112H186C188.761 112 191 114.239 191 117V117C191 119.761 188.761 122 186 122H63C60.2386 122 58 119.761 58 117V117Z" fill="#BABABA"/>
<path d="M58 132C58 129.239 60.2386 127 63 127H101C103.761 127 106 129.239 106 132V132C106 134.761 103.761 137 101 137H63C60.2386 137 58 134.761 58 132V132Z" fill="#BABABA"/>
<path d="M111 132C111 129.239 113.239 127 116 127H186C188.761 127 191 129.239 191 132V132C191 134.761 188.761 137 186 137H116C113.239 137 111 134.761 111 132V132Z" fill="#BABABA"/>
<path d="M46 64H78C79.6569 64 81 65.3431 81 67V82H43V67C43 65.3431 44.3431 64 46 64Z" fill="#FEFEFE" stroke="#222222" stroke-width="2"/>
<rect x="44" y="81" width="40" height="14" fill="#FEFEFE"/>
</svg>
